<svg width="21" height="24" viewBox="0 0 21 24" fill="none" xmlns="http://www.w3.org/2000/svg">
<g clip-path="url(#clip0_9_709)">
<path fill-rule="evenodd" clip-rule="evenodd" d="M2.28207 8.70937V2.12817H7.42737V8.70937H2.28207ZM0.307709 1.14099C0.307709 0.595785 0.749684 0.153809 1.29489 0.153809H8.41455C8.95975 0.153809 9.40173 0.595784 9.40173 1.14099V9.69654C9.40173 10.2417 8.95975 10.6837 8.41455 10.6837H1.29489C0.749684 10.6837 0.307709 10.2417 0.307709 9.69654V1.14099ZM2.28207 21.872V15.2908H7.42737V21.872H2.28207ZM0.307709 14.3036C0.307709 13.7584 0.749683 13.3164 1.29489 13.3164H8.41455C8.95975 13.3164 9.40173 13.7584 9.40173 14.3036V22.8592C9.40173 23.4044 8.95975 23.8464 8.41455 23.8464H1.29489C0.749682 23.8464 0.307709 23.4044 0.307709 22.8592V14.3036ZM13.6496 2.12821V8.7094H18.7949V2.12821H13.6496ZM12.6624 0.153846C12.1172 0.153846 11.6752 0.595823 11.6752 1.14103V9.69658C11.6752 10.2418 12.1172 10.6838 12.6624 10.6838H19.7821C20.3273 10.6838 20.7692 10.2418 20.7692 9.69658V1.14103C20.7692 0.595821 20.3273 0.153846 19.7821 0.153846H12.6624ZM13.6496 21.872V15.2908H18.7949V21.872H13.6496ZM11.6752 14.3036C11.6752 13.7584 12.1172 13.3164 12.6624 13.3164H19.7821C20.3273 13.3164 20.7692 13.7584 20.7692 14.3036V22.8592C20.7692 23.4044 20.3273 23.8464 19.7821 23.8464H12.6624C12.1172 23.8464 11.6752 23.4044 11.6752 22.8592V14.3036Z" fill="#8D91C7"/>
</g>
<defs>
<clipPath id="clip0_9_709">
<rect width="20.4615" height="23.6925" fill="white" transform="translate(0.307709 0.153809)"/>
</clipPath>
</defs>
</svg>
