<svg width="46" height="55" viewBox="0 0 46 55" fill="none" xmlns="http://www.w3.org/2000/svg">
<path fill-rule="evenodd" clip-rule="evenodd" d="M23.2278 12.7525C26.7493 12.7525 29.604 9.89774 29.604 6.37624C29.604 2.85474 26.7493 0 23.2278 0C19.7063 0 16.8515 2.85474 16.8515 6.37624C16.8515 9.89774 19.7063 12.7525 23.2278 12.7525ZM30.9703 14.5743H15.4852V14.5743L2.73267 14.5743C1.22346 14.5743 0 15.7978 0 17.307C0 18.8162 1.22346 20.0397 2.73267 20.0397H15.4852V38.2575L15.4852 51.9208C15.4852 53.43 16.7086 54.6535 18.2179 54.6535C19.7271 54.6535 20.9505 53.43 20.9505 51.9208V38.2575H25.5049V51.9208C25.5049 53.43 26.7284 54.6535 28.2376 54.6535C29.7468 54.6535 30.9703 53.43 30.9703 51.9208L30.9703 38.2575V20.0397H43.2673C44.7766 20.0397 46 18.8162 46 17.307C46 15.7978 44.7766 14.5743 43.2673 14.5743L30.9703 14.5743V14.5743Z" fill="#00B57A"/>
</svg>
