<svg width="60" height="50" viewBox="0 0 60 50" fill="none" xmlns="http://www.w3.org/2000/svg">
<mask id="mask0_36_144" style="mask-type:alpha" maskUnits="userSpaceOnUse" x="0" y="0" width="60" height="50">
<path fill-rule="evenodd" clip-rule="evenodd" d="M47.9266 34.5226C47.9067 34.543 47.8867 34.5633 47.8665 34.5835L34.5827 47.8672C31.9514 50.4985 27.6853 50.4985 25.054 47.8672L4.72462 27.5378C-1.57488 21.2384 -1.57487 11.0249 4.72462 4.72536C11.0241 -1.57413 21.2376 -1.57413 27.5371 4.72536L29.818 7.00624L32.0996 4.72462C38.3991 -1.57488 48.6126 -1.57487 54.9121 4.72462C61.2116 11.0241 61.2116 21.2376 54.9121 27.5371L47.9266 34.5226Z" fill="#D9D9D9"/>
</mask>
<g mask="url(#mask0_36_144)">
<path fill-rule="evenodd" clip-rule="evenodd" d="M47.9265 34.5227C47.9067 34.5431 47.8866 34.5634 47.8664 34.5835L34.5827 47.8673C31.9514 50.4986 27.6852 50.4986 25.054 47.8673L4.72459 27.5379C-1.57491 21.2384 -1.5749 11.0249 4.72459 4.72542C11.0241 -1.57407 21.2376 -1.57407 27.5371 4.72542L29.818 7.0063L32.0996 4.72468C38.3991 -1.57482 48.6126 -1.57481 54.9121 4.72468C61.2116 11.0242 61.2116 21.2377 54.9121 27.5372L47.9265 34.5227Z" fill="#E84855"/>
<path d="M1 27.7857H17.8496L22.8053 16L30.7345 36L38.6637 20.6429L44.115 27.7857H57" stroke="#1D1F28" stroke-width="4"/>
</g>
</svg>
