<svg width="22" height="24" viewBox="0 0 22 24" fill="none" xmlns="http://www.w3.org/2000/svg">
<path d="M20.5641 22.5C20.5641 20.8718 20.5641 20.0578 20.3632 19.3953C19.9107 17.9039 18.7436 16.7367 17.2521 16.2843C16.5897 16.0833 15.7756 16.0833 14.1474 16.0833H8.3141C6.68594 16.0833 5.87186 16.0833 5.20943 16.2843C3.71796 16.7367 2.55081 17.9039 2.09838 19.3953C1.89743 20.0578 1.89743 20.8718 1.89743 22.5M16.4808 6.75C16.4808 9.6495 14.1303 12 11.2308 12C8.33127 12 5.98076 9.6495 5.98076 6.75C5.98076 3.85051 8.33127 1.5 11.2308 1.5C14.1303 1.5 16.4808 3.85051 16.4808 6.75Z" stroke="#3A3A3A" stroke-width="2.33333" stroke-linecap="round" stroke-linejoin="round"/>
</svg>
