<svg width="49" height="46" viewBox="0 0 49 46" fill="none" xmlns="http://www.w3.org/2000/svg">
<path fill-rule="evenodd" clip-rule="evenodd" d="M27.5031 24.1248L38.3904 13.8066C41.5973 10.7673 41.7332 5.70385 38.6939 2.49696C35.6547 -0.709923 30.5912 -0.845816 27.3843 2.19344L16.497 12.5117L27.5031 24.1248ZM13.3109 15.5367L2.47062 25.9043C-0.722417 28.9581 -0.835294 34.0222 2.2185 37.2152C5.2723 40.4083 10.3364 40.5212 13.5294 37.4674L24.3697 27.0998L13.3109 15.5367Z" fill="#34B7FF"/>
<path fill-rule="evenodd" clip-rule="evenodd" d="M28 33H38.5H49C49 28.0294 44.299 24 38.5 24C32.701 24 28 28.0294 28 33ZM49 37H38.5H28C28 41.9706 32.701 46 38.5 46C44.299 46 49 41.9706 49 37Z" fill="#B0DAF1"/>
</svg>
