<svg width="54" height="64" viewBox="0 0 54 64" fill="none" xmlns="http://www.w3.org/2000/svg">
<path d="M35.6469 20.2066C35.8008 19.7578 36.3818 19.6418 36.6962 19.9971L39.1056 22.7195C39.2208 22.8497 39.3854 22.9255 39.5592 22.9283L43.1941 22.9872C43.6686 22.9949 43.9584 23.5115 43.7176 23.9204L41.873 27.0531C41.7848 27.2029 41.7636 27.3829 41.8147 27.549L42.8819 31.0243C43.0212 31.4779 42.6194 31.9132 42.1561 31.8105L38.6067 31.0242C38.437 30.9866 38.2593 31.0221 38.117 31.122L35.1417 33.2109C34.7533 33.4836 34.2152 33.2359 34.1696 32.7636L33.8206 29.145C33.8039 28.9719 33.7153 28.8139 33.5763 28.7094L30.6702 26.5252C30.2909 26.2401 30.3601 25.6518 30.7952 25.4625L34.1289 24.0124C34.2883 23.943 34.4112 23.8099 34.4676 23.6455L35.6469 20.2066Z" fill="#F9C200"/>
<path d="M28.9209 10.1989C29.1397 9.91838 29.5799 9.97821 29.7159 10.307L30.5442 12.3091C30.5941 12.4296 30.6922 12.5235 30.8147 12.568L32.8513 13.3077C33.1858 13.4291 33.2649 13.8662 32.9942 14.0972L31.346 15.5037C31.2469 15.5883 31.1879 15.7107 31.1834 15.8409L31.1093 18.0064C31.0971 18.362 30.7059 18.5723 30.4026 18.3863L28.5556 17.2534C28.4445 17.1852 28.3099 17.1669 28.1846 17.203L26.1022 17.8016C25.7603 17.8999 25.4394 17.5928 25.5226 17.2469L26.0292 15.1402C26.0597 15.0135 26.0355 14.8798 25.9626 14.7718L24.7497 12.9763C24.5505 12.6815 24.7434 12.2814 25.0982 12.2536L27.2583 12.0845C27.3882 12.0743 27.5079 12.01 27.5881 11.9072L28.9209 10.1989Z" fill="#F9C200"/>
<path d="M41.9594 13.5341C42.0426 13.3476 42.296 13.32 42.4173 13.4844L43.2953 14.6747C43.3397 14.7349 43.4074 14.7736 43.4818 14.7815L44.9528 14.9366C45.1559 14.9581 45.2604 15.1906 45.1415 15.3567L44.2808 16.5596C44.2373 16.6204 44.2214 16.6968 44.2369 16.77L44.5439 18.2169C44.5862 18.4166 44.3974 18.5879 44.2027 18.5262L42.7927 18.0793C42.7214 18.0567 42.6438 18.0652 42.579 18.1026L41.2978 18.8416C41.1209 18.9437 40.8997 18.8169 40.8982 18.6127L40.8875 17.1337C40.8869 17.0589 40.855 16.9877 40.7994 16.9376L39.7006 15.9475C39.5489 15.8108 39.601 15.5612 39.7948 15.4967L41.1981 15.0295C41.2691 15.0058 41.3269 14.9534 41.3573 14.8851L41.9594 13.5341Z" fill="#F9C200"/>
<path fill-rule="evenodd" clip-rule="evenodd" d="M47.8949 42.5252C48.5528 41.6852 47.7571 40.5331 46.6992 40.6726C45.5421 40.8253 44.3616 40.9041 43.1628 40.9041C28.3666 40.9041 16.3721 28.9095 16.3721 14.1134C16.3721 9.97578 17.3101 6.05735 18.985 2.55892C19.4458 1.59651 18.5969 0.483511 17.5947 0.849753C7.32829 4.60149 0 14.455 0 26.0203C0 40.8165 11.9945 52.811 26.7907 52.811C35.3609 52.811 42.991 48.787 47.8949 42.5252Z" fill="#F9C200"/>
</svg>
