<svg width="396" height="396" viewBox="0 0 396 396" fill="none" xmlns="http://www.w3.org/2000/svg">
<path d="M165 140.287C167.907 132.022 173.646 125.054 181.199 120.615C188.752 116.176 197.632 114.553 206.267 116.034C214.902 117.515 222.734 122.004 228.376 128.707C234.018 135.409 237.105 143.892 237.092 152.653C237.092 177.384 199.995 189.75 199.995 189.75M200.473 239.25H200.638M163.35 316.8L187.44 348.92C191.022 353.697 192.814 356.085 195.01 356.939C196.933 357.687 199.067 357.687 200.99 356.939C203.186 356.085 204.978 353.697 208.56 348.92L232.65 316.8C237.487 310.351 239.905 307.126 242.855 304.664C246.789 301.382 251.432 299.06 256.418 297.883C260.158 297 264.188 297 272.25 297C295.314 297 306.846 297 315.943 293.232C328.072 288.208 337.708 278.572 342.732 266.443C346.5 257.346 346.5 245.814 346.5 222.75V128.7C346.5 100.977 346.5 87.1161 341.105 76.5275C336.359 67.2134 328.787 59.6409 319.472 54.8952C308.884 49.5 295.023 49.5 267.3 49.5H128.7C100.977 49.5 87.1161 49.5 76.5275 54.8952C67.2134 59.6409 59.6409 67.2134 54.8952 76.5275C49.5 87.1161 49.5 100.977 49.5 128.7V222.75C49.5 245.814 49.5 257.346 53.268 266.443C58.2919 278.572 67.9283 288.208 80.0572 293.232C89.1538 297 100.686 297 123.75 297C131.812 297 135.842 297 139.582 297.883C144.568 299.06 149.211 301.382 153.145 304.664C156.095 307.126 158.513 310.351 163.35 316.8Z" stroke="#A3A3A3" stroke-opacity="0.16" stroke-width="33" stroke-linecap="round" stroke-linejoin="round"/>
</svg>
