<svg width="29" height="28" viewBox="0 0 29 28" fill="none" xmlns="http://www.w3.org/2000/svg">
<path d="M23.5641 24.5C23.5641 22.8718 23.5641 22.0578 23.3632 21.3953C22.9107 19.9039 21.7436 18.7367 20.2521 18.2843C19.5897 18.0833 18.7756 18.0833 17.1475 18.0833H11.3141C9.68597 18.0833 8.87189 18.0833 8.20946 18.2843C6.71799 18.7367 5.55084 19.9039 5.09841 21.3953C4.89746 22.0578 4.89746 22.8718 4.89746 24.5M19.4808 8.75C19.4808 11.6495 17.1303 14 14.2308 14C11.3313 14 8.98079 11.6495 8.98079 8.75C8.98079 5.85051 11.3313 3.5 14.2308 3.5C17.1303 3.5 19.4808 5.85051 19.4808 8.75Z" stroke="#8D91C7" stroke-width="2.33333" stroke-linecap="round" stroke-linejoin="round"/>
</svg>
