<svg width="26" height="26" viewBox="0 0 26 26" fill="none" xmlns="http://www.w3.org/2000/svg">
<path d="M15.0769 2.52098V6.96925C15.0769 7.57239 15.0769 7.87395 15.1943 8.10432C15.2975 8.30695 15.4623 8.4717 15.6649 8.57495C15.8953 8.69233 16.1969 8.69233 16.8 8.69233H21.2483M15.0769 18.3846H8.61537M17.2308 14.0769H8.61537M21.5384 10.8334V18.5999C21.5384 20.4093 21.5384 21.314 21.1863 22.0051C20.8766 22.6131 20.3823 23.1073 19.7744 23.417C19.0833 23.7692 18.1786 23.7692 16.3692 23.7692H9.47691C7.66751 23.7692 6.76281 23.7692 6.07171 23.417C5.4638 23.1073 4.96956 22.6131 4.65981 22.0051C4.30768 21.314 4.30768 20.4093 4.30768 18.5999V7.39994C4.30768 5.59054 4.30768 4.68584 4.65981 3.99474C4.96956 3.38684 5.4638 2.89259 6.07171 2.58285C6.76281 2.23071 7.66751 2.23071 9.47691 2.23071H12.9357C13.726 2.23071 14.1211 2.23071 14.4929 2.31998C14.8225 2.39912 15.1377 2.52966 15.4268 2.7068C15.7528 2.9066 16.0322 3.18598 16.5909 3.74475L20.0244 7.17822C20.5832 7.73699 20.8626 8.01637 21.0624 8.34241C21.2395 8.63147 21.37 8.94662 21.4492 9.27627C21.5384 9.64809 21.5384 10.0432 21.5384 10.8334Z" stroke="#8D91C7" stroke-width="2.15385" stroke-linecap="round" stroke-linejoin="round"/>
</svg>
