<svg width="134" height="167" viewBox="0 0 134 167" fill="none" xmlns="http://www.w3.org/2000/svg">
<path d="M12.8121 147.586H18.7424C20.3761 147.586 21.591 147.957 22.3872 148.698C23.1834 149.425 23.5815 150.537 23.5815 152.034C23.5815 153.544 23.1834 154.669 22.3872 155.411C21.591 156.138 20.3761 156.502 18.7424 156.502H15.2419V162H12.8121V147.586ZM18.763 154.587C19.4769 154.587 20.0534 154.374 20.4927 153.949C20.932 153.509 21.1517 152.871 21.1517 152.034C21.1517 151.196 20.932 150.565 20.4927 150.139C20.0534 149.714 19.4769 149.501 18.763 149.501H15.2419V154.587H18.763ZM29.0024 162.247C27.6296 162.247 26.5657 161.918 25.8107 161.259C25.0557 160.6 24.6781 159.666 24.6781 158.458V155.864C24.6781 154.656 25.0557 153.722 25.8107 153.063C26.5657 152.404 27.6296 152.075 29.0024 152.075C30.3889 152.075 31.4596 152.404 32.2147 153.063C32.9697 153.722 33.3472 154.656 33.3472 155.864V158.458C33.3472 159.666 32.9697 160.6 32.2147 161.259C31.4596 161.918 30.3889 162.247 29.0024 162.247ZM29.0024 160.497C29.675 160.497 30.1898 160.325 30.5468 159.982C30.9174 159.625 31.1027 159.117 31.1027 158.458V155.864C31.1027 155.205 30.9174 154.704 30.5468 154.361C30.1898 154.004 29.675 153.825 29.0024 153.825C28.3435 153.825 27.8287 154.004 27.458 154.361C27.1011 154.704 26.9226 155.205 26.9226 155.864V158.458C26.9226 159.117 27.1011 159.625 27.458 159.982C27.8287 160.325 28.3435 160.497 29.0024 160.497ZM39.7818 162.247C38.3815 162.247 37.3039 161.924 36.5489 161.279C35.7939 160.634 35.4163 159.707 35.4163 158.499V155.823C35.4163 154.628 35.7939 153.708 36.5489 153.063C37.3176 152.404 38.3953 152.075 39.7818 152.075C41.4977 152.075 42.7538 152.617 43.55 153.702L42.0057 154.958C41.6625 154.546 41.3261 154.258 40.9967 154.093C40.6809 153.914 40.276 153.825 39.7818 153.825C39.1091 153.825 38.5875 154.004 38.2168 154.361C37.8462 154.704 37.6608 155.191 37.6608 155.823V158.499C37.6608 159.145 37.8393 159.639 38.1962 159.982C38.5669 160.325 39.0954 160.497 39.7818 160.497C40.2897 160.497 40.7084 160.414 41.0379 160.25C41.3811 160.071 41.7105 159.783 42.0263 159.385L43.5706 160.641C43.1725 161.176 42.6715 161.581 42.0674 161.856C41.4634 162.117 40.7015 162.247 39.7818 162.247ZM38.711 150.901C38.3953 150.297 37.9834 149.693 37.4755 149.089C36.9813 148.471 36.5489 148.005 36.1782 147.689H38.1756C38.4365 147.908 38.7041 148.176 38.9787 148.492C39.2533 148.794 39.4729 149.082 39.6376 149.357C39.8024 149.082 40.022 148.794 40.2966 148.492C40.5711 148.176 40.8388 147.908 41.0996 147.689H43.1176C42.7332 148.005 42.2871 148.471 41.7792 149.089C41.285 149.707 40.88 150.311 40.5643 150.901H38.711ZM49.5155 160.517C50.0509 160.517 50.497 160.449 50.854 160.311C51.2246 160.16 51.5952 159.907 51.9659 159.55L53.3044 160.785C52.8925 161.266 52.3777 161.629 51.76 161.876C51.1422 162.124 50.3803 162.247 49.4743 162.247C47.9917 162.247 46.8935 161.945 46.1797 161.341C45.4658 160.723 45.1089 159.783 45.1089 158.52V155.514C45.1089 154.457 45.4795 153.626 46.2208 153.022C46.9759 152.404 48.0054 152.095 49.3096 152.095C50.6412 152.095 51.6776 152.425 52.4189 153.084C53.1602 153.729 53.5309 154.663 53.5309 155.884C53.5309 156.447 53.4759 156.886 53.3661 157.202C53.2563 157.518 53.0573 157.751 52.769 157.902C52.4807 158.04 52.0551 158.108 51.4923 158.108H47.3328V158.52C47.3328 159.852 48.0604 160.517 49.5155 160.517ZM49.289 153.805C48.685 153.805 48.2045 153.976 47.8476 154.319C47.5044 154.663 47.3328 155.116 47.3328 155.678V156.564H50.2774C50.6618 156.564 50.9295 156.502 51.0805 156.378C51.2315 156.241 51.307 156.008 51.307 155.678C51.307 155.074 51.1285 154.614 50.7716 154.299C50.4284 153.969 49.9342 153.805 49.289 153.805ZM57.6799 154.072V158.644C57.6799 159.234 57.7829 159.659 57.9888 159.92C58.1947 160.181 58.531 160.311 58.9978 160.311H60.4804V162.041H58.9978C57.7074 162.041 56.7876 161.787 56.2385 161.279C55.7031 160.758 55.4354 159.879 55.4354 158.644V150.572C55.4354 150.242 55.3736 149.974 55.2501 149.769C55.1265 149.563 54.9 149.329 54.5706 149.068L56.0738 147.751C56.6778 148.066 57.0965 148.43 57.3299 148.842C57.5632 149.24 57.6799 149.803 57.6799 150.53V152.322H60.4804V154.072H57.6799ZM77.1012 162H74.7949L73.8889 158.685C73.7653 158.232 73.5732 157.902 73.3123 157.696C73.0652 157.49 72.6603 157.36 72.0974 157.305L70.5119 158.911V162H68.2674V149.542C68.2674 149.213 68.2056 148.945 68.0821 148.739C67.9585 148.533 67.732 148.3 67.4025 148.039L68.9057 146.742C69.5097 147.044 69.9284 147.401 70.1618 147.812C70.3952 148.21 70.5119 148.773 70.5119 149.501V156.173L74.2801 152.322H77.0188L73.7036 155.678C74.3625 155.816 74.8773 156.118 75.2479 156.584C75.6186 157.051 75.9343 157.751 76.1952 158.685L77.1012 162ZM84.2114 152.075C84.8429 152.075 85.3989 152.246 85.8793 152.59L85.3028 154.484C85.0557 154.319 84.8017 154.203 84.5409 154.134C84.2938 154.052 84.0055 154.01 83.676 154.01C82.6053 154.01 81.8502 154.8 81.4109 156.378V162H79.1665V154.896C79.1665 154.566 79.1047 154.299 78.9811 154.093C78.8576 153.887 78.6311 153.654 78.3016 153.393L79.8048 152.075C80.2853 152.322 80.6422 152.596 80.8756 152.899C81.1227 153.187 81.2805 153.551 81.3492 153.99C81.6375 153.4 82.0218 152.933 82.5023 152.59C82.9828 152.246 83.5525 152.075 84.2114 152.075ZM90.9381 162.247C89.5653 162.247 88.5014 161.918 87.7464 161.259C86.9914 160.6 86.6139 159.666 86.6139 158.458V155.864C86.6139 154.656 86.9914 153.722 87.7464 153.063C88.5014 152.404 89.5653 152.075 90.9381 152.075C92.3246 152.075 93.3954 152.404 94.1504 153.063C94.9054 153.722 95.2829 154.656 95.2829 155.864V158.458C95.2829 159.666 94.9054 160.6 94.1504 161.259C93.3954 161.918 92.3246 162.247 90.9381 162.247ZM90.9381 160.497C91.6108 160.497 92.1256 160.325 92.4825 159.982C92.8531 159.625 93.0385 159.117 93.0385 158.458V155.864C93.0385 155.205 92.8531 154.704 92.4825 154.361C92.1256 154.004 91.6108 153.825 90.9381 153.825C90.2792 153.825 89.7644 154.004 89.3937 154.361C89.0368 154.704 88.8584 155.205 88.8584 155.864V158.458C88.8584 159.117 89.0368 159.625 89.3937 159.982C89.7644 160.325 90.2792 160.497 90.9381 160.497ZM106.541 162H104.235L103.328 158.685C103.205 158.232 103.013 157.902 102.752 157.696C102.505 157.49 102.1 157.36 101.537 157.305L99.9514 158.911V162H97.707V149.542C97.707 149.213 97.6452 148.945 97.5216 148.739C97.3981 148.533 97.1716 148.3 96.8421 148.039L98.3453 146.742C98.9493 147.044 99.368 147.401 99.6014 147.812C99.8348 148.21 99.9514 148.773 99.9514 149.501V156.173L103.72 152.322H106.458L103.143 155.678C103.802 155.816 104.317 156.118 104.688 156.584C105.058 157.051 105.374 157.751 105.635 158.685L106.541 162ZM112.173 162.247C110.8 162.247 109.737 161.918 108.982 161.259C108.226 160.6 107.849 159.666 107.849 158.458V155.864C107.849 154.656 108.226 153.722 108.982 153.063C109.737 152.404 110.8 152.075 112.173 152.075C113.56 152.075 114.63 152.404 115.386 153.063C116.141 153.722 116.518 154.656 116.518 155.864V158.458C116.518 159.666 116.141 160.6 115.386 161.259C114.63 161.918 113.56 162.247 112.173 162.247ZM112.173 160.497C112.846 160.497 113.361 160.325 113.718 159.982C114.088 159.625 114.274 159.117 114.274 158.458V155.864C114.274 155.205 114.088 154.704 113.718 154.361C113.361 154.004 112.846 153.825 112.173 153.825C111.514 153.825 110.999 154.004 110.629 154.361C110.272 154.704 110.093 155.205 110.093 155.864V158.458C110.093 159.117 110.272 159.625 110.629 159.982C110.999 160.325 111.514 160.497 112.173 160.497ZM122.443 162.247C121.797 162.247 121.283 162.082 120.898 161.753C120.514 161.41 120.205 160.847 119.972 160.064L117.562 152.322H119.745L122.01 159.858C122.093 160.119 122.154 160.291 122.196 160.373C122.25 160.456 122.333 160.497 122.443 160.497C122.539 160.497 122.614 160.456 122.669 160.373C122.738 160.277 122.806 160.106 122.875 159.858L125.12 152.322H127.282L124.914 160.064C124.68 160.847 124.371 161.41 123.987 161.753C123.616 162.082 123.102 162.247 122.443 162.247Z" fill="white"/>
<path d="M134 67C134 104.003 104.003 134 67 134C29.9969 134 0 104.003 0 67C0 29.9969 29.9969 0 67 0C104.003 0 134 29.9969 134 67ZM13.4 67C13.4 96.6025 37.3975 120.6 67 120.6C96.6025 120.6 120.6 96.6025 120.6 67C120.6 37.3975 96.6025 13.4 67 13.4C37.3975 13.4 13.4 37.3975 13.4 67Z" fill="#F09A85"/>
<path d="M67 6.7C67 2.99969 70.0072 -0.0347137 73.689 0.334702C83.6349 1.33263 93.2616 4.54698 101.847 9.77532C112.346 16.1688 120.884 25.3275 126.526 36.2488C132.168 47.1702 134.697 59.4332 133.835 71.6955C132.974 83.9579 128.755 95.7469 121.642 105.772C114.528 115.797 104.794 123.672 93.5038 128.535C82.2139 133.398 69.8038 135.061 57.632 133.342C45.4602 131.623 33.9958 126.589 24.4938 118.79C16.7234 112.413 10.5103 104.388 6.2838 95.3293C4.71922 91.976 6.5903 88.1355 10.083 86.9135C13.5757 85.6915 17.3608 87.5574 19.0088 90.8705C22.3677 97.6236 27.1261 103.615 32.995 108.432C40.5966 114.671 49.7681 118.698 59.5056 120.073C69.243 121.448 79.1711 120.118 88.203 116.228C97.235 112.338 105.023 106.038 110.713 98.0177C116.404 89.9975 119.779 80.5663 120.468 70.7564C121.157 60.9466 119.135 51.1361 114.621 42.3991C110.107 33.662 103.277 26.335 94.8779 21.2203C88.3931 17.2713 81.1661 14.7586 73.6827 13.8182C70.0113 13.3568 67 10.4003 67 6.7Z" fill="#F03A47"/>
<path d="M50.9396 66.4279C52.436 66.4279 53.6234 66.8328 54.502 67.6428C55.3943 68.439 55.8404 69.5166 55.8404 70.8757C55.8404 72.3034 55.3737 73.429 54.4402 74.2527C53.5067 75.0764 52.23 75.4882 50.6102 75.4882C48.9903 75.4882 47.7067 75.0146 46.7595 74.0674C45.826 73.1202 45.3593 71.7542 45.3593 69.9696C45.3593 67.43 46.0114 65.3708 47.3155 63.7921C48.6334 62.1997 50.5553 61.129 53.0812 60.5799L53.843 62.2272C52.2369 62.5155 50.9259 63.1126 49.91 64.0187C48.9079 64.9247 48.2284 66.1053 47.8715 67.5604C48.6677 66.8054 49.6904 66.4279 50.9396 66.4279ZM50.6102 73.7379C51.5436 73.7379 52.2712 73.4908 52.7929 72.9966C53.3283 72.5024 53.5959 71.7954 53.5959 70.8757C53.5959 70.0108 53.3351 69.345 52.8135 68.8783C52.3055 68.4115 51.578 68.1782 50.6308 68.1782C49.3129 68.1782 48.3039 68.6861 47.6038 69.7019V69.9696C47.6038 71.109 47.8509 72.0219 48.3451 72.7083C48.8393 73.3947 49.5943 73.7379 50.6102 73.7379ZM63.0145 75.4882C61.9438 75.4882 60.9691 75.3372 60.0905 75.0352C59.2119 74.7194 58.4432 74.1635 57.7843 73.3673L59.0609 72.07C59.5414 72.7152 60.1111 73.1545 60.77 73.3878C61.4427 73.6212 62.184 73.7379 62.9939 73.7379C64.0921 73.7379 64.9433 73.4839 65.5473 72.976C66.165 72.4681 66.4739 71.7474 66.4739 70.8139C66.4739 69.798 66.1582 69.0499 65.5267 68.5694C64.8952 68.0889 63.9549 67.8487 62.7056 67.8487C61.8408 67.8487 60.873 67.986 59.8022 68.2605L58.6079 66.9015L59.2051 60.827H67.8741V62.5772H61.0171L60.6877 66.2631C61.2505 66.1259 61.93 66.0572 62.7262 66.0572C64.6756 66.0572 66.1582 66.4622 67.174 67.2721C68.2036 68.0821 68.7184 69.2627 68.7184 70.8139C68.7184 72.2828 68.2105 73.429 67.1946 74.2527C66.1925 75.0764 64.7991 75.4882 63.0145 75.4882ZM73.9429 68.8989C72.8996 68.8989 72.0965 68.6175 71.5337 68.0546C70.9708 67.4918 70.6894 66.6818 70.6894 65.6248V63.1332C70.6894 62.1174 70.9708 61.3417 71.5337 60.8064C72.0965 60.271 72.8996 60.0033 73.9429 60.0033C74.9725 60.0033 75.7618 60.271 76.3109 60.8064C76.8738 61.3417 77.1552 62.1174 77.1552 63.1332V65.6248C77.1552 66.6818 76.8738 67.4918 76.3109 68.0546C75.7618 68.6175 74.9725 68.8989 73.9429 68.8989ZM73.9429 67.581C74.4508 67.581 74.8352 67.4163 75.096 67.0868C75.3706 66.7436 75.5078 66.2563 75.5078 65.6248V63.1332C75.5078 62.5429 75.3706 62.0968 75.096 61.7948C74.8352 61.479 74.4508 61.3212 73.9429 61.3212C73.435 61.3212 73.0437 61.479 72.7692 61.7948C72.4946 62.0968 72.3573 62.5429 72.3573 63.1332V65.6248C72.3573 66.2563 72.4877 66.7436 72.7486 67.0868C73.0231 67.4163 73.4212 67.581 73.9429 67.581ZM83.2091 60.827H84.8153L76.208 75.2411H74.6018L83.2091 60.827ZM85.4536 75.9824C84.4103 75.9824 83.6072 75.701 83.0444 75.1381C82.4815 74.5753 82.2001 73.7654 82.2001 72.7083V70.2167C82.2001 69.2009 82.4815 68.4253 83.0444 67.8899C83.6072 67.3545 84.4103 67.0868 85.4536 67.0868C86.4832 67.0868 87.2725 67.3545 87.8216 67.8899C88.3845 68.4253 88.6659 69.2009 88.6659 70.2167V72.7083C88.6659 73.7654 88.3845 74.5753 87.8216 75.1381C87.2725 75.701 86.4832 75.9824 85.4536 75.9824ZM85.4536 74.6645C85.9615 74.6645 86.3459 74.4998 86.6067 74.1703C86.8813 73.8271 87.0186 73.3398 87.0186 72.7083V70.2167C87.0186 69.6264 86.8813 69.1803 86.6067 68.8783C86.3459 68.5625 85.9615 68.4047 85.4536 68.4047C84.9457 68.4047 84.5544 68.5625 84.2799 68.8783C84.0053 69.1803 83.868 69.6264 83.868 70.2167V72.7083C83.868 73.3398 83.9985 73.8271 84.2593 74.1703C84.5338 74.4998 84.9319 74.6645 85.4536 74.6645Z" fill="white"/>
</svg>
