<svg width="75" height="75" viewBox="0 0 75 75" fill="none" xmlns="http://www.w3.org/2000/svg">
<path fill-rule="evenodd" clip-rule="evenodd" d="M40.5031 40.1248L51.3904 29.8066C54.5973 26.7673 54.7332 21.7038 51.6939 18.497C48.6547 15.2901 43.5912 15.1542 40.3843 18.1934L29.497 28.5117L40.5031 40.1248ZM26.3109 31.5367L15.4706 41.9043C12.2776 44.9581 12.1647 50.0222 15.2185 53.2152C18.2723 56.4083 23.3364 56.5212 26.5294 53.4674L37.3697 43.0998L26.3109 31.5367Z" fill="#B0DAF1"/>
<path fill-rule="evenodd" clip-rule="evenodd" d="M46 48.3182H54.5H63C63 43.9 59.1944 40.3182 54.5 40.3182C49.8056 40.3182 46 43.9 46 48.3182ZM63 51.3182H54.5H46C46 55.7365 49.8056 59.3182 54.5 59.3182C59.1944 59.3182 63 55.7365 63 51.3182Z" fill="#D62839"/>
<circle cx="37.5" cy="37.5" r="37.5" fill="#D9D9D9" fill-opacity="0.08"/>
</svg>
