<svg width="40" height="59" viewBox="0 0 40 59" fill="none" xmlns="http://www.w3.org/2000/svg">
<mask id="mask0_36_234" style="mask-type:alpha" maskUnits="userSpaceOnUse" x="0" y="0" width="40" height="59">
<path d="M39.8386 40.2399C39.6234 42.8222 38.4805 46.4444 37.4716 48.2019C36.0481 50.6812 33.3209 53.4981 30.7925 55.1104C28.264 56.7227 25.3434 57.7648 22.2758 58.1493C19.2081 58.5338 16.0829 58.2494 13.1623 57.3201C10.2418 56.3908 7.61118 54.8436 5.49125 52.8083C3.37131 50.7731 1.82393 48.3054 0.978917 45.6196C0.133904 42.9339 -0.199048 40.5702 0.118159 37.0121C0.424931 33.5711 1.53059 30.5565 3.46728 27.9743C4.96886 25.8224 7.34066 23.2402 8.63652 22.1301C9.93238 21.02 13.1623 18.0757 15.5225 15.7086C17.4592 14.2023 20.1951 9.81012 20.4718 7.31635C20.7485 4.82258 20.4718 0 20.4718 0C20.4718 0 25.5074 3.70478 27.3201 7.96191C28.2264 10.0905 29.5907 12.3024 30.3704 17.4301C31.0788 22.0893 30.8008 31.711 29.0793 35.721C27.444 39.5302 27.3201 41.3159 27.3201 41.3159L23.8595 33.6243C23.8595 33.6243 28.1616 34.0195 31.6615 31.4958C33.4419 30.2119 34.1809 28.7286 34.8893 25.9615C35.5978 23.1944 35.3907 19.1976 35.5349 18.7213L36.6339 21.2787C36.6339 21.2787 37.9019 24.24 38.3323 25.9615C38.6689 27.3081 39.6234 29.6958 39.8386 32.7084C40.0538 35.721 40.0538 37.6577 39.8386 40.2399Z" fill="#E59500"/>
</mask>
<g mask="url(#mask0_36_234)">
<path d="M39.8386 40.2399C39.6234 42.8222 38.4805 46.4444 37.4716 48.2019C36.0481 50.6812 33.3209 53.4981 30.7925 55.1104C28.264 56.7227 25.3434 57.7648 22.2758 58.1493C19.2081 58.5338 16.0829 58.2494 13.1623 57.3201C10.2418 56.3908 7.61118 54.8436 5.49125 52.8083C3.37131 50.7731 1.82393 48.3054 0.978917 45.6196C0.133904 42.9339 -0.199048 40.5702 0.118159 37.0121C0.424931 33.5711 1.53059 30.5565 3.46728 27.9743C4.96886 25.8224 7.34066 23.2402 8.63652 22.1301C9.93238 21.02 13.1623 18.0757 15.5225 15.7086C17.4592 14.2023 20.1951 9.81012 20.4718 7.31635C20.7485 4.82258 20.4718 0 20.4718 0C20.4718 0 25.5074 3.70478 27.3201 7.96191C28.2264 10.0905 29.5907 12.3024 30.3704 17.4301C31.0788 22.0893 30.8008 31.711 29.0793 35.721C27.444 39.5302 27.3201 41.3159 27.3201 41.3159L23.8595 33.6243C23.8595 33.6243 28.1616 34.0195 31.6615 31.4958C33.4419 30.2119 34.1809 28.7286 34.8893 25.9615C35.5978 23.1944 35.3907 19.1976 35.5349 18.7213L36.6339 21.2787C36.6339 21.2787 37.9019 24.24 38.3323 25.9615C38.6689 27.3081 39.6234 29.6958 39.8386 32.7084C40.0538 35.721 40.0538 37.6577 39.8386 40.2399Z" fill="#FF630B"/>
<path d="M30.796 54.0118C30.9636 55.8055 30.6507 57.1804 30.0663 58.625C29.4818 60.0696 28.6266 61.3726 27.5527 62.4546C26.4788 63.5366 25.2088 64.3748 23.82 64.9183C22.4312 65.4617 20.9528 65.699 19.4749 65.6156C17.997 65.5322 16.5506 65.1299 15.2239 64.4332C13.8971 63.7365 12.7178 62.76 11.7578 61.5632C10.7978 60.3665 10.2612 59.1712 9.79964 57.4548C9.45182 56.1614 9.36927 54.0522 9.36927 54.0522C9.36927 54.0522 9.16245 51.7565 9.36925 50.5689C9.56143 48.5835 9.74925 47.2351 10.2299 45.6196C10.9361 43.2461 13.3459 40.0971 13.3459 40.0971C13.3459 40.0971 15.2151 37.6554 16.6856 36.3665C18.1405 35.0913 20.7742 33.5691 20.7742 33.5691C20.7742 33.5691 21.2435 41.6081 26.7993 46.9107C29.5049 49.4929 30.5009 50.8529 30.796 54.0118Z" fill="#1D1F28"/>
</g>
</svg>
