<svg width="26" height="26" viewBox="0 0 26 26" fill="none" xmlns="http://www.w3.org/2000/svg">
<path d="M15.0769 2.44407V6.89235C15.0769 7.49548 15.0769 7.79705 15.1943 8.02741C15.2975 8.23005 15.4623 8.3948 15.6649 8.49805C15.8953 8.61542 16.1969 8.61542 16.8 8.61542H21.2483M15.0769 18.3077H8.61537M17.2308 14H8.61537M21.5384 10.7565V18.523C21.5384 20.3324 21.5384 21.2371 21.1863 21.9282C20.8766 22.5361 20.3823 23.0304 19.7744 23.3401C19.0833 23.6923 18.1786 23.6923 16.3692 23.6923H9.47691C7.66751 23.6923 6.76281 23.6923 6.07171 23.3401C5.4638 23.0304 4.96956 22.5361 4.65981 21.9282C4.30768 21.2371 4.30768 20.3324 4.30768 18.523V7.32304C4.30768 5.51364 4.30768 4.60894 4.65981 3.91784C4.96956 3.30993 5.4638 2.81569 6.07171 2.50594C6.76281 2.15381 7.66751 2.15381 9.47691 2.15381H12.9357C13.726 2.15381 14.1211 2.15381 14.4929 2.24308C14.8225 2.32222 15.1377 2.45276 15.4268 2.62989C15.7528 2.82969 16.0322 3.10907 16.5909 3.66784L20.0244 7.10131C20.5832 7.66008 20.8626 7.93947 21.0624 8.2655C21.2395 8.55457 21.37 8.86971 21.4492 9.19937C21.5384 9.57119 21.5384 9.9663 21.5384 10.7565Z" stroke="#3A3A3A" stroke-width="2.15385" stroke-linecap="round" stroke-linejoin="round"/>
</svg>
