<svg width="430" height="78" viewBox="0 0 430 78" fill="none" xmlns="http://www.w3.org/2000/svg">
<g filter="url(#filter0_d_9_705)">
<rect width="430" height="78" fill="#181A21"/>
</g>
<path d="M60.0769 20.521V24.9693C60.0769 25.5724 60.0769 25.874 60.1943 26.1043C60.2976 26.307 60.4623 26.4717 60.6649 26.575C60.8953 26.6923 61.1969 26.6923 61.8 26.6923H66.2483M60.0769 36.3846H53.6154M62.2308 32.0769H53.6154M66.5385 28.8334V36.5999C66.5385 38.4093 66.5385 39.314 66.1863 40.0051C65.8766 40.6131 65.3823 41.1073 64.7744 41.417C64.0833 41.7692 63.1786 41.7692 61.3692 41.7692H54.4769C52.6675 41.7692 51.7628 41.7692 51.0717 41.417C50.4638 41.1073 49.9696 40.6131 49.6598 40.0051C49.3077 39.314 49.3077 38.4093 49.3077 36.5999V25.3999C49.3077 23.5905 49.3077 22.6858 49.6598 21.9947C49.9696 21.3868 50.4638 20.8926 51.0717 20.5828C51.7628 20.2307 52.6675 20.2307 54.4769 20.2307H57.9358C58.726 20.2307 59.1211 20.2307 59.4929 20.32C59.8226 20.3991 60.1377 20.5297 60.4268 20.7068C60.7528 20.9066 61.0322 21.186 61.591 21.7447L65.0244 25.1782C65.5832 25.737 65.8626 26.0164 66.0624 26.3424C66.2395 26.6315 66.3701 26.9466 66.4492 27.2763C66.5385 27.6481 66.5385 28.0432 66.5385 28.8334Z" stroke="#3A3A3A" stroke-width="2.15385" stroke-linecap="round" stroke-linejoin="round"/>
<g clip-path="url(#clip0_9_705)">
<path fill-rule="evenodd" clip-rule="evenodd" d="M205.282 27.7094V21.1282H210.427V27.7094H205.282ZM203.308 20.141C203.308 19.5958 203.75 19.1538 204.295 19.1538H211.415C211.96 19.1538 212.402 19.5958 212.402 20.141V28.6965C212.402 29.2417 211.96 29.6837 211.415 29.6837H204.295C203.75 29.6837 203.308 29.2417 203.308 28.6965V20.141ZM205.282 40.872V34.2908H210.427V40.872H205.282ZM203.308 33.3036C203.308 32.7584 203.75 32.3164 204.295 32.3164H211.415C211.96 32.3164 212.402 32.7584 212.402 33.3036V41.8592C212.402 42.4044 211.96 42.8464 211.415 42.8464H204.295C203.75 42.8464 203.308 42.4044 203.308 41.8592V33.3036ZM216.65 21.1282V27.7094H221.795V21.1282H216.65ZM215.662 19.1538C215.117 19.1538 214.675 19.5958 214.675 20.141V28.6966C214.675 29.2418 215.117 29.6838 215.662 29.6838H222.782C223.327 29.6838 223.769 29.2418 223.769 28.6966V20.141C223.769 19.5958 223.327 19.1538 222.782 19.1538H215.662ZM216.65 40.872V34.2908H221.795V40.872H216.65ZM214.675 33.3036C214.675 32.7584 215.117 32.3164 215.662 32.3164H222.782C223.327 32.3164 223.769 32.7584 223.769 33.3036V41.8592C223.769 42.4044 223.327 42.8464 222.782 42.8464H215.662C215.117 42.8464 214.675 42.4044 214.675 41.8592V33.3036Z" fill="#8D91C7"/>
</g>
<path d="M379.564 41.5C379.564 39.8718 379.564 39.0578 379.363 38.3953C378.911 36.9039 377.744 35.7367 376.252 35.2843C375.59 35.0833 374.776 35.0833 373.147 35.0833H367.314C365.686 35.0833 364.872 35.0833 364.209 35.2843C362.718 35.7367 361.551 36.9039 361.098 38.3953C360.897 39.0578 360.897 39.8718 360.897 41.5M375.481 25.75C375.481 28.6495 373.13 31 370.231 31C367.331 31 364.981 28.6495 364.981 25.75C364.981 22.8505 367.331 20.5 370.231 20.5C373.13 20.5 375.481 22.8505 375.481 25.75Z" stroke="#3A3A3A" stroke-width="2.33333" stroke-linecap="round" stroke-linejoin="round"/>
<path d="M35.1718 49.6788H39.0068C40.0632 49.6788 40.8489 49.9185 41.3637 50.3979C41.8786 50.8684 42.1361 51.5874 42.1361 52.5551C42.1361 53.5316 41.8786 54.2595 41.3637 54.7389C40.8489 55.2094 40.0632 55.4446 39.0068 55.4446H36.7431V59H35.1718V49.6788ZM39.0201 54.2062C39.4817 54.2062 39.8546 54.0686 40.1387 53.7934C40.4227 53.5094 40.5648 53.0966 40.5648 52.5551C40.5648 52.0135 40.4227 51.6052 40.1387 51.33C39.8546 51.0548 39.4817 50.9172 39.0201 50.9172H36.7431V54.2062H39.0201ZM46.7273 52.5817C47.1356 52.5817 47.4952 52.6927 47.8059 52.9146L47.433 54.1397C47.2732 54.0331 47.109 53.9577 46.9403 53.9133C46.7805 53.86 46.5941 53.8334 46.3811 53.8334C45.6886 53.8334 45.2004 54.3438 44.9163 55.3647V59H43.4649V54.406C43.4649 54.1929 43.4249 54.0198 43.345 53.8867C43.2651 53.7535 43.1186 53.6026 42.9056 53.4339L43.8777 52.5817C44.1884 52.7415 44.4192 52.919 44.5701 53.1143C44.7299 53.3008 44.832 53.536 44.8763 53.8201C45.0628 53.4384 45.3113 53.1365 45.622 52.9146C45.9328 52.6927 46.3012 52.5817 46.7273 52.5817ZM51.1305 58.0412C51.4767 58.0412 51.7652 57.9969 51.996 57.9081C52.2357 57.8104 52.4754 57.6462 52.7151 57.4154L53.5806 58.2144C53.3143 58.5251 52.9814 58.7603 52.5819 58.9201C52.1825 59.0799 51.6898 59.1598 51.1039 59.1598C50.1451 59.1598 49.4349 58.9645 48.9733 58.5739C48.5117 58.1744 48.2809 57.5663 48.2809 56.7496V54.8055C48.2809 54.1219 48.5206 53.5848 48.9999 53.1942C49.4882 52.7948 50.154 52.595 50.9973 52.595C51.8584 52.595 52.5287 52.8081 53.008 53.2342C53.4874 53.6514 53.7271 54.2551 53.7271 55.0452C53.7271 55.4091 53.6916 55.6932 53.6206 55.8974C53.5496 56.1016 53.4208 56.2525 53.2344 56.3501C53.048 56.4389 52.7728 56.4833 52.4088 56.4833H49.719V56.7496C49.719 57.6107 50.1895 58.0412 51.1305 58.0412ZM50.984 53.7002C50.5934 53.7002 50.2827 53.8112 50.0519 54.0331C49.83 54.2551 49.719 54.548 49.719 54.912V55.4846H51.6232C51.8717 55.4846 52.0449 55.4446 52.1425 55.3647C52.2402 55.276 52.289 55.125 52.289 54.912C52.289 54.5214 52.1736 54.224 51.9428 54.0198C51.7208 53.8068 51.4013 53.7002 50.984 53.7002ZM58.4726 52.5817C59.1384 52.5817 59.6488 52.7726 60.0039 53.1543C60.3679 53.5271 60.5499 54.0553 60.5499 54.7389V59H59.0984V54.8854C59.0984 54.5214 59.0052 54.2373 58.8188 54.0331C58.6413 53.8201 58.3883 53.7136 58.0598 53.7136C57.6781 53.7136 57.3629 53.8378 57.1144 54.0864C56.8658 54.335 56.6749 54.6634 56.5418 55.0718V59H55.0903V50.9438C55.0903 50.7219 55.0504 50.5443 54.9705 50.4112C54.8906 50.278 54.7441 50.1316 54.5311 49.9718L55.5031 49.1195C55.8937 49.3237 56.1645 49.559 56.3154 49.8253C56.4663 50.0827 56.5418 50.4467 56.5418 50.9172V53.5804C56.7371 53.2697 56.9945 53.0256 57.3141 52.848C57.6426 52.6705 58.0287 52.5817 58.4726 52.5817ZM63.3595 59.1598C62.9689 58.9556 62.6937 58.7204 62.5339 58.454C62.3829 58.1877 62.3075 57.8238 62.3075 57.3621V50.9438C62.3075 50.7219 62.2675 50.5443 62.1876 50.4112C62.1078 50.278 61.9613 50.1316 61.7482 49.9718L62.7203 49.1195C63.1109 49.3237 63.3816 49.559 63.5326 49.8253C63.6835 50.0827 63.7589 50.4467 63.7589 50.9172V57.3355C63.7589 57.5486 63.7989 57.7217 63.8788 57.8548C63.9676 57.988 64.1185 58.1389 64.3315 58.3076L63.3595 59.1598ZM65.2237 49.266C65.5078 49.266 65.7297 49.3681 65.8895 49.5723C66.0493 49.7676 66.1292 50.0383 66.1292 50.3846C66.1292 50.8373 66.0227 51.2457 65.8096 51.6096C65.5965 51.9647 65.2903 52.3021 64.8908 52.6216L64.4514 52.1955C64.9396 51.8316 65.2193 51.4365 65.2903 51.0104C65.2015 51.0548 65.0772 51.077 64.9174 51.077C64.7132 51.077 64.549 51.0104 64.4247 50.8772C64.3093 50.7352 64.2516 50.5443 64.2516 50.3047C64.2516 50.0472 64.3448 49.812 64.5313 49.5989C64.7177 49.377 64.9485 49.266 65.2237 49.266ZM72.2193 57.3355C72.2193 57.5486 72.2592 57.7217 72.3391 57.8548C72.419 57.988 72.5655 58.1389 72.7785 58.3076L71.8065 59.1598C71.3093 58.9112 70.9942 58.5828 70.861 58.1744C70.6569 58.4585 70.3772 58.6937 70.0221 58.8802C69.667 59.0666 69.2454 59.1598 68.7571 59.1598C68.1179 59.1598 67.6119 59 67.2391 58.6804C66.8662 58.352 66.6798 57.8903 66.6798 57.2956C66.6798 56.612 66.9151 56.1282 67.3856 55.8441C67.8561 55.56 68.4553 55.3781 69.1832 55.2982L69.9555 55.2183C70.2396 55.1916 70.4394 55.1428 70.5548 55.0718C70.6791 54.9919 70.7501 54.8765 70.7678 54.7256C70.7146 53.9799 70.2663 53.607 69.4229 53.607C69.0944 53.607 68.8104 53.6647 68.5707 53.7801C68.3399 53.8867 68.1179 54.0686 67.9049 54.3261L66.9062 53.6203C67.1459 53.2919 67.4655 53.0389 67.8649 52.8613C68.2644 52.6749 68.7837 52.5817 69.4229 52.5817C70.355 52.5817 71.0519 52.777 71.5135 53.1676C71.984 53.5493 72.2193 54.1086 72.2193 54.8454V57.3355ZM69.1166 58.0945C69.6315 58.0945 70.0354 57.9658 70.3284 57.7083C70.6213 57.4509 70.7678 57.1269 70.7678 56.7363V56.0172C70.5992 56.0882 70.3062 56.1459 69.889 56.1903L69.2897 56.2569C68.473 56.3457 68.0647 56.6697 68.0647 57.229C68.0647 57.513 68.1535 57.7305 68.331 57.8815C68.5174 58.0235 68.7793 58.0945 69.1166 58.0945ZM79.8412 57.3355C79.8412 57.5486 79.8812 57.7217 79.9611 57.8548C80.041 57.988 80.1874 58.1389 80.4005 58.3076L79.4417 59.1598C78.9624 58.9112 78.6516 58.5561 78.5096 58.0945C78.2788 58.4496 77.9903 58.7159 77.6441 58.8935C77.3067 59.071 76.8939 59.1598 76.4057 59.1598C75.5712 59.1598 74.9054 58.8846 74.4083 58.3342C73.92 57.7749 73.6759 57.0248 73.6759 56.0838V55.6577C73.6759 55.0807 73.7824 54.5613 73.9955 54.0997C74.2085 53.6292 74.5193 53.2608 74.9276 52.9945C75.336 52.7193 75.8287 52.5817 76.4057 52.5817C77.2845 52.5817 77.9459 52.8702 78.3898 53.4472V50.9438C78.3898 50.7308 78.3498 50.5577 78.2699 50.4245C78.19 50.2913 78.0436 50.1404 77.8305 49.9718L78.8026 49.1329C79.1932 49.337 79.4639 49.5723 79.6148 49.8386C79.7658 50.096 79.8412 50.4556 79.8412 50.9172V57.3355ZM78.3898 54.9253C78.1501 54.1175 77.6174 53.7136 76.7919 53.7136C76.2681 53.7136 75.8597 53.9 75.5668 54.2728C75.2738 54.6368 75.1274 55.0984 75.1274 55.6577V56.0838C75.1274 56.6431 75.2738 57.1091 75.5668 57.482C75.8597 57.8459 76.2681 58.0279 76.7919 58.0279C77.6174 58.0279 78.1501 57.624 78.3898 56.8162V54.9253Z" fill="#3A3A3A"/>
<path d="M176.444 57.7749V59.0133H171.091C170.522 59.0133 170.092 58.8935 169.799 58.6538C169.515 58.4052 169.373 58.0191 169.373 57.4953V56.683L174.579 50.9172H169.573V49.6788H176.217V51.0903L170.811 57.1624V57.2822C170.811 57.4687 170.86 57.5974 170.957 57.6684C171.055 57.7394 171.206 57.7749 171.41 57.7749H176.444ZM183.151 57.3355C183.151 57.5486 183.191 57.7217 183.271 57.8548C183.35 57.988 183.497 58.1389 183.71 58.3076L182.751 59.1598C182.272 58.9112 181.961 58.5561 181.819 58.0945C181.588 58.4496 181.3 58.7159 180.954 58.8935C180.616 59.071 180.203 59.1598 179.715 59.1598C178.881 59.1598 178.215 58.8846 177.718 58.3342C177.23 57.7749 176.985 57.0248 176.985 56.0838V55.6577C176.985 55.0807 177.092 54.5613 177.305 54.0997C177.518 53.6292 177.829 53.2608 178.237 52.9945C178.645 52.7193 179.138 52.5817 179.715 52.5817C180.594 52.5817 181.255 52.8702 181.699 53.4472V50.9438C181.699 50.7308 181.659 50.5577 181.579 50.4245C181.5 50.2913 181.353 50.1404 181.14 49.9718L182.112 49.1329C182.503 49.337 182.773 49.5723 182.924 49.8386C183.075 50.096 183.151 50.4556 183.151 50.9172V57.3355ZM181.699 54.9253C181.46 54.1175 180.927 53.7136 180.101 53.7136C179.578 53.7136 179.169 53.9 178.876 54.2728C178.583 54.6368 178.437 55.0984 178.437 55.6577V56.0838C178.437 56.6431 178.583 57.1091 178.876 57.482C179.169 57.8459 179.578 58.0279 180.101 58.0279C180.927 58.0279 181.46 57.624 181.699 56.8162V54.9253ZM188.398 52.5817C188.807 52.5817 189.166 52.6927 189.477 52.9146L189.104 54.1397C188.944 54.0331 188.78 53.9577 188.611 53.9133C188.452 53.86 188.265 53.8334 188.052 53.8334C187.36 53.8334 186.871 54.3438 186.587 55.3647V59H185.136V54.406C185.136 54.1929 185.096 54.0198 185.016 53.8867C184.936 53.7535 184.79 53.6026 184.577 53.4339L185.549 52.5817C185.859 52.7415 186.09 52.919 186.241 53.1143C186.401 53.3008 186.503 53.536 186.547 53.8201C186.734 53.4384 186.982 53.1365 187.293 52.9146C187.604 52.6927 187.972 52.5817 188.398 52.5817ZM195.282 57.3355C195.282 57.5486 195.322 57.7217 195.402 57.8548C195.481 57.988 195.628 58.1389 195.841 58.3076L194.869 59.1598C194.372 58.9112 194.057 58.5828 193.923 58.1744C193.719 58.4585 193.44 58.6937 193.085 58.8802C192.729 59.0666 192.308 59.1598 191.82 59.1598C191.18 59.1598 190.674 59 190.302 58.6804C189.929 58.352 189.742 57.8903 189.742 57.2956C189.742 56.612 189.977 56.1282 190.448 55.8441C190.918 55.56 191.518 55.3781 192.246 55.2982L193.018 55.2183C193.302 55.1916 193.502 55.1428 193.617 55.0718C193.741 54.9919 193.812 54.8765 193.83 54.7256C193.777 53.9799 193.329 53.607 192.485 53.607C192.157 53.607 191.873 53.6647 191.633 53.7801C191.402 53.8867 191.18 54.0686 190.967 54.3261L189.969 53.6203C190.208 53.2919 190.528 53.0389 190.927 52.8613C191.327 52.6749 191.846 52.5817 192.485 52.5817C193.417 52.5817 194.114 52.777 194.576 53.1676C195.046 53.5493 195.282 54.1086 195.282 54.8454V57.3355ZM192.179 58.0945C192.694 58.0945 193.098 57.9658 193.391 57.7083C193.684 57.4509 193.83 57.1269 193.83 56.7363V56.0172C193.662 56.0882 193.369 56.1459 192.951 56.1903L192.352 56.2569C191.535 56.3457 191.127 56.6697 191.127 57.229C191.127 57.513 191.216 57.7305 191.393 57.8815C191.58 58.0235 191.842 58.0945 192.179 58.0945ZM199.363 59.1598C198.946 59.1598 198.613 59.0533 198.364 58.8402C198.116 58.6183 197.916 58.2543 197.765 57.7483L196.207 52.7415H197.619L199.084 57.6151C199.137 57.7838 199.177 57.8948 199.203 57.948C199.239 58.0013 199.292 58.0279 199.363 58.0279C199.425 58.0279 199.474 58.0013 199.51 57.948C199.554 57.8859 199.598 57.7749 199.643 57.6151L201.094 52.7415H202.492L200.961 57.7483C200.81 58.2543 200.61 58.6183 200.362 58.8402C200.122 59.0533 199.789 59.1598 199.363 59.1598ZM205.96 59.1598C205.072 59.1598 204.384 58.9467 203.896 58.5206C203.408 58.0945 203.164 57.4909 203.164 56.7097V55.0318C203.164 54.2506 203.408 53.647 203.896 53.2209C204.384 52.7948 205.072 52.5817 205.96 52.5817C206.857 52.5817 207.549 52.7948 208.037 53.2209C208.526 53.647 208.77 54.2506 208.77 55.0318V56.7097C208.77 57.4909 208.526 58.0945 208.037 58.5206C207.549 58.9467 206.857 59.1598 205.96 59.1598ZM205.96 58.0279C206.395 58.0279 206.728 57.917 206.959 57.695C207.199 57.4642 207.318 57.1358 207.318 56.7097V55.0318C207.318 54.6057 207.199 54.2817 206.959 54.0598C206.728 53.829 206.395 53.7136 205.96 53.7136C205.534 53.7136 205.201 53.829 204.961 54.0598C204.731 54.2817 204.615 54.6057 204.615 55.0318V56.7097C204.615 57.1358 204.731 57.4642 204.961 57.695C205.201 57.917 205.534 58.0279 205.96 58.0279ZM211.852 53.8733V56.8295C211.852 57.2112 211.919 57.4864 212.052 57.6551C212.185 57.8238 212.403 57.9081 212.705 57.9081H213.663V59.0266H212.705C211.87 59.0266 211.275 58.8624 210.92 58.5339C210.574 58.1966 210.401 57.6285 210.401 56.8295V51.6096C210.401 51.3966 210.361 51.2235 210.281 51.0903C210.201 50.9571 210.055 50.8062 209.842 50.6376L210.814 49.7853C211.204 49.9895 211.475 50.2248 211.626 50.4911C211.777 50.7485 211.852 51.1125 211.852 51.583V52.7415H213.663V53.8733H211.852ZM218.492 52.5817C219.166 52.5817 219.681 52.7726 220.036 53.1543C220.4 53.5271 220.582 54.0553 220.582 54.7389V59H219.131V54.8854C219.131 54.5214 219.038 54.2373 218.851 54.0331C218.674 53.8201 218.421 53.7136 218.092 53.7136C217.711 53.7136 217.395 53.8378 217.147 54.0864C216.898 54.3261 216.707 54.6457 216.574 55.0452V59H215.123V54.406C215.123 54.1929 215.083 54.0198 215.003 53.8867C214.923 53.7535 214.777 53.6026 214.564 53.4339L215.536 52.5817C215.82 52.7326 216.037 52.8968 216.188 53.0744C216.339 53.2431 216.446 53.4472 216.508 53.6869C216.694 53.3496 216.956 53.0833 217.293 52.888C217.631 52.6838 218.03 52.5817 218.492 52.5817ZM224.96 58.0412C225.306 58.0412 225.595 57.9969 225.826 57.9081C226.065 57.8104 226.305 57.6462 226.545 57.4154L227.41 58.2144C227.144 58.5251 226.811 58.7603 226.412 58.9201C226.012 59.0799 225.519 59.1598 224.933 59.1598C223.975 59.1598 223.265 58.9645 222.803 58.5739C222.341 58.1744 222.11 57.5663 222.11 56.7496V54.8055C222.11 54.1219 222.35 53.5848 222.83 53.1942C223.318 52.7948 223.984 52.595 224.827 52.595C225.688 52.595 226.358 52.8081 226.838 53.2342C227.317 53.6514 227.557 54.2551 227.557 55.0452C227.557 55.4091 227.521 55.6932 227.45 55.8974C227.379 56.1016 227.25 56.2525 227.064 56.3501C226.878 56.4389 226.602 56.4833 226.238 56.4833H223.549V56.7496C223.549 57.6107 224.019 58.0412 224.96 58.0412ZM224.814 53.7002C224.423 53.7002 224.112 53.8112 223.882 54.0331C223.66 54.2551 223.549 54.548 223.549 54.912V55.4846H225.453C225.701 55.4846 225.874 55.4446 225.972 55.3647C226.07 55.276 226.119 55.125 226.119 54.912C226.119 54.5214 226.003 54.224 225.772 54.0198C225.55 53.8068 225.231 53.7002 224.814 53.7002ZM225.213 49.7853H226.744L225.32 51.8227H224.148L225.213 49.7853ZM238.365 57.3355C238.365 57.5486 238.405 57.7217 238.485 57.8548C238.565 57.988 238.711 58.1389 238.925 58.3076L237.966 59.1598C237.486 58.9112 237.176 58.5561 237.034 58.0945C236.803 58.4496 236.514 58.7159 236.168 58.8935C235.831 59.071 235.418 59.1598 234.93 59.1598C234.095 59.1598 233.429 58.8846 232.932 58.3342C232.444 57.7749 232.2 57.0248 232.2 56.0838V55.6577C232.2 55.0807 232.306 54.5613 232.52 54.0997C232.733 53.6292 233.043 53.2608 233.452 52.9945C233.86 52.7193 234.353 52.5817 234.93 52.5817C235.809 52.5817 236.47 52.8702 236.914 53.4472V50.9438C236.914 50.7308 236.874 50.5577 236.794 50.4245C236.714 50.2913 236.568 50.1404 236.355 49.9718L237.327 49.1329C237.717 49.337 237.988 49.5723 238.139 49.8386C238.29 50.096 238.365 50.4556 238.365 50.9172V57.3355ZM236.914 54.9253C236.674 54.1175 236.141 53.7136 235.316 53.7136C234.792 53.7136 234.384 53.9 234.091 54.2728C233.798 54.6368 233.651 55.0984 233.651 55.6577V56.0838C233.651 56.6431 233.798 57.1091 234.091 57.482C234.384 57.8459 234.792 58.0279 235.316 58.0279C236.141 58.0279 236.674 57.624 236.914 56.8162V54.9253ZM245.399 57.3355C245.399 57.5486 245.439 57.7217 245.519 57.8548C245.598 57.988 245.745 58.1389 245.958 58.3076L244.986 59.1598C244.489 58.9112 244.174 58.5828 244.04 58.1744C243.836 58.4585 243.557 58.6937 243.202 58.8802C242.846 59.0666 242.425 59.1598 241.937 59.1598C241.297 59.1598 240.791 59 240.419 58.6804C240.046 58.352 239.859 57.8903 239.859 57.2956C239.859 56.612 240.094 56.1282 240.565 55.8441C241.035 55.56 241.635 55.3781 242.363 55.2982L243.135 55.2183C243.419 55.1916 243.619 55.1428 243.734 55.0718C243.858 54.9919 243.929 54.8765 243.947 54.7256C243.894 53.9799 243.446 53.607 242.602 53.607C242.274 53.607 241.99 53.6647 241.75 53.7801C241.519 53.8867 241.297 54.0686 241.084 54.3261L240.086 53.6203C240.325 53.2919 240.645 53.0389 241.044 52.8613C241.444 52.6749 241.963 52.5817 242.602 52.5817C243.534 52.5817 244.231 52.777 244.693 53.1676C245.163 53.5493 245.399 54.1086 245.399 54.8454V57.3355ZM242.296 58.0945C242.811 58.0945 243.215 57.9658 243.508 57.7083C243.801 57.4509 243.947 57.1269 243.947 56.7363V56.0172C243.779 56.0882 243.486 56.1459 243.068 56.1903L242.469 56.2569C241.652 56.3457 241.244 56.6697 241.244 57.229C241.244 57.513 241.333 57.7305 241.51 57.8815C241.697 58.0235 241.959 58.0945 242.296 58.0945ZM243.308 49.7853H244.839L243.415 51.8227H242.243L243.308 49.7853ZM248.536 53.8733V56.8295C248.536 57.2112 248.603 57.4864 248.736 57.6551C248.869 57.8238 249.087 57.9081 249.388 57.9081H250.347V59.0266H249.388C248.554 59.0266 247.959 58.8624 247.604 58.5339C247.258 58.1966 247.085 57.6285 247.085 56.8295V51.6096C247.085 51.3966 247.045 51.2235 246.965 51.0903C246.885 50.9571 246.739 50.8062 246.526 50.6376L247.498 49.7853C247.888 49.9895 248.159 50.2248 248.31 50.4911C248.461 50.7485 248.536 51.1125 248.536 51.583V52.7415H250.347V53.8733H248.536ZM256.92 57.3355C256.92 57.5486 256.96 57.7217 257.04 57.8548C257.12 57.988 257.266 58.1389 257.479 58.3076L256.507 59.1598C256.01 58.9112 255.695 58.5828 255.562 58.1744C255.358 58.4585 255.078 58.6937 254.723 58.8802C254.368 59.0666 253.946 59.1598 253.458 59.1598C252.819 59.1598 252.313 59 251.94 58.6804C251.567 58.352 251.381 57.8903 251.381 57.2956C251.381 56.612 251.616 56.1282 252.086 55.8441C252.557 55.56 253.156 55.3781 253.884 55.2982L254.656 55.2183C254.94 55.1916 255.14 55.1428 255.256 55.0718C255.38 54.9919 255.451 54.8765 255.469 54.7256C255.415 53.9799 254.967 53.607 254.124 53.607C253.795 53.607 253.511 53.6647 253.272 53.7801C253.041 53.8867 252.819 54.0686 252.606 54.3261L251.607 53.6203C251.847 53.2919 252.166 53.0389 252.566 52.8613C252.965 52.6749 253.485 52.5817 254.124 52.5817C255.056 52.5817 255.753 52.777 256.214 53.1676C256.685 53.5493 256.92 54.1086 256.92 54.8454V57.3355ZM253.818 58.0945C254.332 58.0945 254.736 57.9658 255.029 57.7083C255.322 57.4509 255.469 57.1269 255.469 56.7363V56.0172C255.3 56.0882 255.007 56.1459 254.59 56.1903L253.991 56.2569C253.174 56.3457 252.766 56.6697 252.766 57.229C252.766 57.513 252.854 57.7305 253.032 57.8815C253.218 58.0235 253.48 58.0945 253.818 58.0945Z" fill="#8D91C7"/>
<path d="M357.42 53.3407C357.837 53.4295 358.179 53.5715 358.445 53.7668C358.711 53.9621 358.938 54.2284 359.124 54.5658C359.319 54.9031 359.515 55.3514 359.71 55.9107L360.735 59H359.151L358.165 56.0572C358.041 55.6843 357.917 55.3958 357.792 55.1916C357.668 54.9875 357.5 54.8232 357.286 54.6989C357.073 54.5747 356.776 54.4903 356.394 54.4459L354.743 56.2436V59H353.172V49.6788H354.743V54.2995L358.924 49.6788H360.802L357.42 53.3407ZM364.474 59.1598C363.586 59.1598 362.898 58.9467 362.41 58.5206C361.922 58.0945 361.677 57.4909 361.677 56.7097V55.0318C361.677 54.2506 361.922 53.647 362.41 53.2209C362.898 52.7948 363.586 52.5817 364.474 52.5817C365.37 52.5817 366.063 52.7948 366.551 53.2209C367.039 53.647 367.284 54.2506 367.284 55.0318V56.7097C367.284 57.4909 367.039 58.0945 366.551 58.5206C366.063 58.9467 365.37 59.1598 364.474 59.1598ZM364.474 58.0279C364.909 58.0279 365.242 57.917 365.473 57.695C365.712 57.4642 365.832 57.1358 365.832 56.7097V55.0318C365.832 54.6057 365.712 54.2817 365.473 54.0598C365.242 53.829 364.909 53.7136 364.474 53.7136C364.048 53.7136 363.715 53.829 363.475 54.0598C363.244 54.2817 363.129 54.6057 363.129 55.0318V56.7097C363.129 57.1358 363.244 57.4642 363.475 57.695C363.715 57.917 364.048 58.0279 364.474 58.0279ZM372.285 52.5817C372.96 52.5817 373.475 52.7726 373.83 53.1543C374.194 53.5271 374.376 54.0553 374.376 54.7389V59H372.924V54.8854C372.924 54.5214 372.831 54.2373 372.645 54.0331C372.467 53.8201 372.214 53.7136 371.886 53.7136C371.504 53.7136 371.189 53.8378 370.94 54.0864C370.692 54.3261 370.501 54.6457 370.368 55.0452V59H368.916V54.406C368.916 54.1929 368.876 54.0198 368.796 53.8867C368.716 53.7535 368.57 53.6026 368.357 53.4339L369.329 52.5817C369.613 52.7326 369.83 52.8968 369.981 53.0744C370.132 53.2431 370.239 53.4472 370.301 53.6869C370.487 53.3496 370.749 53.0833 371.087 52.888C371.424 52.6838 371.823 52.5817 372.285 52.5817ZM377.479 53.8733V56.8295C377.479 57.2112 377.546 57.4864 377.679 57.6551C377.812 57.8238 378.029 57.9081 378.331 57.9081H379.29V59.0266H378.331C377.497 59.0266 376.902 58.8624 376.547 58.5339C376.201 58.1966 376.028 57.6285 376.028 56.8295V51.6096C376.028 51.3966 375.988 51.2235 375.908 51.0903C375.828 50.9571 375.681 50.8062 375.468 50.6376L376.44 49.7853C376.831 49.9895 377.102 50.2248 377.253 50.4911C377.404 50.7485 377.479 51.1125 377.479 51.583V52.7415H379.29V53.8733H377.479ZM383.121 59.1598C382.234 59.1598 381.546 58.9467 381.057 58.5206C380.569 58.0945 380.325 57.4909 380.325 56.7097V55.0318C380.325 54.2506 380.569 53.647 381.057 53.2209C381.546 52.7948 382.234 52.5817 383.121 52.5817C384.018 52.5817 384.71 52.7948 385.199 53.2209C385.687 53.647 385.931 54.2506 385.931 55.0318V56.7097C385.931 57.4909 385.687 58.0945 385.199 58.5206C384.71 58.9467 384.018 59.1598 383.121 59.1598ZM383.121 58.0279C383.556 58.0279 383.889 57.917 384.12 57.695C384.36 57.4642 384.48 57.1358 384.48 56.7097V55.0318C384.48 54.6057 384.36 54.2817 384.12 54.0598C383.889 53.829 383.556 53.7136 383.121 53.7136C382.695 53.7136 382.362 53.829 382.123 54.0598C381.892 54.2817 381.777 54.6057 381.777 55.0318V56.7097C381.777 57.1358 381.892 57.4642 382.123 57.695C382.362 57.917 382.695 58.0279 383.121 58.0279Z" fill="#3A3A3A"/>
<defs>
<filter id="filter0_d_9_705" x="-4" y="0" width="438" height="103" filterUnits="userSpaceOnUse" color-interpolation-filters="sRGB">
<feFlood flood-opacity="0" result="BackgroundImageFix"/>
<feColorMatrix in="SourceAlpha" type="matrix" values="0 0 0 0 0 0 0 0 0 0 0 0 0 0 0 0 0 0 127 0" result="hardAlpha"/>
<feOffset dy="21"/>
<feGaussianBlur stdDeviation="2"/>
<feComposite in2="hardAlpha" operator="out"/>
<feColorMatrix type="matrix" values="0 0 0 0 0 0 0 0 0 0 0 0 0 0 0 0 0 0 0.25 0"/>
<feBlend mode="normal" in2="BackgroundImageFix" result="effect1_dropShadow_9_705"/>
<feBlend mode="normal" in="SourceGraphic" in2="effect1_dropShadow_9_705" result="shape"/>
</filter>
<clipPath id="clip0_9_705">
<rect width="20.4615" height="23.6925" fill="white" transform="translate(203.308 19.1538)"/>
</clipPath>
</defs>
</svg>
