<svg width="40" height="40" viewBox="0 0 31 31" fill="none" xmlns="http://www.w3.org/2000/svg">
<circle cx="15.4208" cy="15.4208" r="15.2327" fill="#95001B" stroke="black" stroke-width="0.376117"/>
<mask id="path-2-inside-1_19_407" fill="white">
<path fill-rule="evenodd" clip-rule="evenodd" d="M10.3988 19.0813L8.44917 17.1317C6.69094 15.3735 6.69094 12.5228 8.44918 10.7646C10.2074 9.00633 13.0581 9.00633 14.8163 10.7646L15.4531 11.4013L16.0897 10.7647C17.8479 9.00649 20.6986 9.00649 22.4568 10.7647C24.2151 12.523 24.2151 15.3736 22.4568 17.1319L16.7827 22.8059C16.0483 23.5404 14.8576 23.5404 14.1232 22.8059L10.4156 19.0984C10.41 19.0927 10.4044 19.087 10.3988 19.0813Z"/>
</mask>
<path fill-rule="evenodd" clip-rule="evenodd" d="M10.3988 19.0813L8.44917 17.1317C6.69094 15.3735 6.69094 12.5228 8.44918 10.7646C10.2074 9.00633 13.0581 9.00633 14.8163 10.7646L15.4531 11.4013L16.0897 10.7647C17.8479 9.00649 20.6986 9.00649 22.4568 10.7647C24.2151 12.523 24.2151 15.3736 22.4568 17.1319L16.7827 22.8059C16.0483 23.5404 14.8576 23.5404 14.1232 22.8059L10.4156 19.0984C10.41 19.0927 10.4044 19.087 10.3988 19.0813Z" fill="#181A21"/>
<path d="M10.3988 19.0813L10.6681 18.8187L10.6647 18.8154L10.3988 19.0813ZM14.8163 10.7646L15.0823 10.4986L14.8163 10.7646ZM15.4531 11.4013L15.1871 11.6673L15.4531 11.9332L15.719 11.6673L15.4531 11.4013ZM10.6647 18.8154L8.71513 16.8657L8.18322 17.3977L10.1328 19.3473L10.6647 18.8154ZM8.71513 16.8657C7.10378 15.2544 7.10378 12.6419 8.71513 11.0305L8.18322 10.4986C6.2781 12.4037 6.2781 15.4925 8.18322 17.3977L8.71513 16.8657ZM8.71513 11.0305C10.3265 9.41917 12.939 9.41917 14.5504 11.0305L15.0823 10.4986C13.1772 8.59349 10.0883 8.59349 8.18322 10.4986L8.71513 11.0305ZM14.5504 11.0305L15.1871 11.6673L15.719 11.1354L15.0823 10.4986L14.5504 11.0305ZM15.719 11.6673L16.3556 11.0307L15.8237 10.4988L15.1871 11.1354L15.719 11.6673ZM16.3556 11.0307C17.967 9.41933 20.5795 9.41933 22.1909 11.0307L22.7228 10.4988C20.8177 8.59365 17.7289 8.59365 15.8237 10.4988L16.3556 11.0307ZM22.1909 11.0307C23.8022 12.642 23.8022 15.2546 22.1909 16.8659L22.7228 17.3978C24.6279 15.4927 24.6279 12.4039 22.7228 10.4988L22.1909 11.0307ZM22.1909 16.8659L16.5168 22.54L17.0487 23.0719L22.7228 17.3978L22.1909 16.8659ZM16.5168 22.54C15.9293 23.1275 14.9767 23.1275 14.3892 22.54L13.8572 23.0719C14.7385 23.9532 16.1674 23.9532 17.0487 23.0719L16.5168 22.54ZM14.3892 22.54L10.6816 18.8324L10.1497 19.3643L13.8572 23.0719L14.3892 22.54ZM10.6816 18.8324C10.677 18.8279 10.6725 18.8233 10.668 18.8187L10.1295 19.3439C10.1362 19.3508 10.1429 19.3576 10.1497 19.3643L10.6816 18.8324Z" fill="black" mask="url(#path-2-inside-1_19_407)"/>
</svg>
