<svg width="137" height="137" viewBox="0 0 137 137" fill="none" xmlns="http://www.w3.org/2000/svg">
<path d="M30.3472 110.961C33.8197 102.78 41.9273 97.0418 51.375 97.0418H85.625C95.0728 97.0418 103.18 102.78 106.653 110.961M91.3334 54.2292C91.3334 66.8398 81.1105 77.0626 68.5 77.0626C55.8895 77.0626 45.6667 66.8398 45.6667 54.2292C45.6667 41.6187 55.8895 31.3959 68.5 31.3959C81.1105 31.3959 91.3334 41.6187 91.3334 54.2292ZM125.583 68.5001C125.583 100.026 100.026 125.583 68.5 125.583C36.9738 125.583 11.4167 100.026 11.4167 68.5001C11.4167 36.9738 36.9738 11.4167 68.5 11.4167C100.026 11.4167 125.583 36.9738 125.583 68.5001Z" stroke="#3A3A3A" stroke-width="3.66667" stroke-linecap="round" stroke-linejoin="round"/>
</svg>
