<svg width="44" height="44" viewBox="0 0 44 44" fill="none" xmlns="http://www.w3.org/2000/svg">
<path d="M9.74653 35.637C10.8618 33.0095 13.4657 31.1666 16.5 31.1666H27.5C30.5343 31.1666 33.1382 33.0095 34.2534 35.637M29.3333 17.4166C29.3333 21.4667 26.0501 24.75 22 24.75C17.9499 24.75 14.6667 21.4667 14.6667 17.4166C14.6667 13.3665 17.9499 10.0833 22 10.0833C26.0501 10.0833 29.3333 13.3665 29.3333 17.4166ZM40.3333 22C40.3333 32.1252 32.1252 40.3333 22 40.3333C11.8748 40.3333 3.66666 32.1252 3.66666 22C3.66666 11.8747 11.8748 3.66663 22 3.66663C32.1252 3.66663 40.3333 11.8747 40.3333 22Z" stroke="#3A3A3A" stroke-width="3.66667" stroke-linecap="round" stroke-linejoin="round"/>
</svg>
