<svg width="21" height="24" viewBox="0 0 21 24" fill="none" xmlns="http://www.w3.org/2000/svg">
<g clip-path="url(#clip0_9_757)">
<path fill-rule="evenodd" clip-rule="evenodd" d="M2.2821 8.63246V2.05126H7.4274V8.63246H2.2821ZM0.307739 1.06409C0.307739 0.518881 0.749715 0.0769043 1.29492 0.0769043H8.41458C8.95978 0.0769043 9.40176 0.51888 9.40176 1.06408V9.61964C9.40176 10.1648 8.95978 10.6068 8.41458 10.6068H1.29492C0.749714 10.6068 0.307739 10.1648 0.307739 9.61964V1.06409ZM2.2821 21.7951V15.2139H7.4274V21.7951H2.2821ZM0.307739 14.2267C0.307739 13.6815 0.749713 13.2395 1.29492 13.2395H8.41458C8.95978 13.2395 9.40176 13.6815 9.40176 14.2267V22.7823C9.40176 23.3275 8.95978 23.7695 8.41458 23.7695H1.29492C0.749713 23.7695 0.307739 23.3275 0.307739 22.7823V14.2267ZM13.6496 2.0513V8.6325H18.7949V2.0513H13.6496ZM12.6624 0.0769419C12.1172 0.0769419 11.6753 0.518919 11.6753 1.06412V9.61968C11.6753 10.1649 12.1172 10.6069 12.6624 10.6069H19.7821C20.3273 10.6069 20.7693 10.1649 20.7693 9.61968V1.06412C20.7693 0.518917 20.3273 0.0769419 19.7821 0.0769419H12.6624ZM13.6496 21.7951V15.2139H18.7949V21.7951H13.6496ZM11.6753 14.2267C11.6753 13.6815 12.1172 13.2395 12.6624 13.2395H19.7821C20.3273 13.2395 20.7693 13.6815 20.7693 14.2267V22.7823C20.7693 23.3275 20.3273 23.7695 19.7821 23.7695H12.6624C12.1172 23.7695 11.6753 23.3275 11.6753 22.7823V14.2267Z" fill="#3A3A3A"/>
</g>
<defs>
<clipPath id="clip0_9_757">
<rect width="20.4615" height="23.6925" fill="white" transform="translate(0.307739 0.0769043)"/>
</clipPath>
</defs>
</svg>
